<svg xmlns="http://www.w3.org/2000/svg" width="131.78" height="39.76" viewBox="0 0 131.78 39.76"><title>Artboard 1</title><path d="M23.69,23.83l3.6-10.59a1.45,1.45,0,0,1,1.53-1.09h1.57c1.15,0,1.53.61,1.12,1.72-.3.81-.62,1.61-.94,2.41q-2.89,7.45-5.81,14.89a6.44,6.44,0,0,1-4.91,4.44,5.89,5.89,0,0,1-3.54-.39,1.11,1.11,0,0,1-.73-1.39h0v-.11a7.24,7.24,0,0,1,.41-1A1.17,1.17,0,0,1,17.48,32l.07,0,.12,0a2.33,2.33,0,0,0,3-.94,14.06,14.06,0,0,0,1.18-2.36A1.16,1.16,0,0,0,21.7,28l-6-14a3.68,3.68,0,0,1-.23-.71.82.82,0,0,1,.51-1,.69.69,0,0,1,.28-.05,21.19,21.19,0,0,1,2.52,0,1.32,1.32,0,0,1,1.14,1l3.7,10.45Z" style="fill:#00adef"/><path d="M37.2,15a7.41,7.41,0,0,1,3.37-2.79,7.25,7.25,0,0,1,5.07-.1,4.79,4.79,0,0,1,3.25,4.75c.13,3.59.06,7.18,0,10.77a1.08,1.08,0,0,1-1,1.18H46.43c-1.21,0-1.6-.39-1.6-1.58V18.39c-.16-2.34-1.45-3.28-3.73-2.72A4.77,4.77,0,0,0,37.48,20c-.14,2.27-.09,4.54-.11,6.81,0,1.82-.22,2-2,2H34.8c-1.15,0-1.55-.4-1.55-1.57V13.67c0-1.16.4-1.54,1.56-1.56,2.27,0,2.42.1,2.4,2.34C37.2,14.66,37.2,14.85,37.2,15Z" style="fill:#00adef"/><path d="M59.82,11.76a9.23,9.23,0,0,1,5.34,1.57,1.21,1.21,0,0,1,.6,1.6,1.13,1.13,0,0,1-.16.26,6.73,6.73,0,0,1-.4.63,1.23,1.23,0,0,1-2,.43,6.07,6.07,0,0,0-3.49-1A5,5,0,0,0,55,20.52v.3c.37,4,4.13,6,7.82,4.24.43-.21.82-.49,1.24-.71a1.14,1.14,0,0,1,1.6.27,1,1,0,0,1,.13.22,7.76,7.76,0,0,1,.46.91,1.14,1.14,0,0,1-.34,1.42c-4.44,3.52-12.46,2.67-14.65-3.67C49.18,17.48,53.36,11.77,59.82,11.76Z" style="fill:#00adef"/><path d="M8.7,11.76a8.8,8.8,0,0,1,4.43,1.1A1.28,1.28,0,0,1,14,14.43a1.35,1.35,0,0,1-.22.43c-.66,1.39-1.07,1.53-2.51.92a6,6,0,0,0-3.71-.55,1.53,1.53,0,0,0-1.33,1.28,1.44,1.44,0,0,0,.9,1.54c.79.38,1.62.69,2.45,1A9.92,9.92,0,0,1,13.21,21a4.64,4.64,0,0,1-.12,6.55,5.19,5.19,0,0,1-.88.66,8.45,8.45,0,0,1-7.49.45,11.73,11.73,0,0,1-2.17-1.12A1.12,1.12,0,0,1,2,26l0,0,.09-.14a5.69,5.69,0,0,1,.33-.52c.64-1,1.1-1.08,2.11-.53A7,7,0,0,0,8.2,25.88a3.92,3.92,0,0,0,1.51-.31,1.38,1.38,0,0,0,.8-1.77,1.43,1.43,0,0,0-.62-.71,14.53,14.53,0,0,0-2-.93A23.72,23.72,0,0,1,4,20.26,4.48,4.48,0,0,1,3.14,14a4.43,4.43,0,0,1,1.12-1A7.49,7.49,0,0,1,8.7,11.76Z" style="fill:#00adef"/><path d="M106.82,16.09A7.72,7.72,0,0,1,111.65,12a6,6,0,0,1,4,.25A4,4,0,0,1,118,15c.1.34.17.7.25,1.07a22.94,22.94,0,0,1,1.57-2.1,6.49,6.49,0,0,1,6.37-2.05,4.51,4.51,0,0,1,3.67,4.2,11.72,11.72,0,0,1,.13,1.56v10c0,.68-.25.91-.84.83s-.53-.46-.53-.86V19a14,14,0,0,0-.12-2.24c-.3-2.85-2.28-4.26-5.09-3.57a6.23,6.23,0,0,0-4.41,4.3,10.44,10.44,0,0,0-.54,3.13c-.08,2.36,0,4.73,0,7.1,0,.65-.29.89-.88.78s-.58-.5-.58-.84V18.52a16.65,16.65,0,0,0-.12-2c-.36-3-2.29-4-5-3.36s-4.13,2.72-4.83,5.31a9.23,9.23,0,0,0-.26,2.22v6.82c0,.5,0,1-.7,1s-.67-.46-.67-.94V13a1.1,1.1,0,0,1,.42-.86c.52-.26.92.07.93.67C106.83,13.86,106.82,14.88,106.82,16.09Z" style="fill:#00adef"/><path d="M103.71,20.35a8.5,8.5,0,1,1-17,.4V20a8.47,8.47,0,1,1,16.94.39h0Zm-1.44-.06a7,7,0,0,0-14.07-.2h0a7,7,0,1,0,14.07.2Z" style="fill:#00adef"/><path d="M71.78,20.54c.1-3.62,1.45-6.35,4.61-7.89a8.38,8.38,0,0,1,9.07.81c.33.23.62.48.35,1s-.61.62-1.19.19a7.09,7.09,0,0,0-8.78,0,7.66,7.66,0,0,0-2,8.93,6.91,6.91,0,0,0,7.57,3.94A7.38,7.38,0,0,0,85,25.91c.31-.25.59-.55,1-.11a.66.66,0,0,1,.08.93.62.62,0,0,1-.2.16,8.63,8.63,0,0,1-8.51,1.6A7.75,7.75,0,0,1,72,22.31,15.19,15.19,0,0,1,71.78,20.54Z" style="fill:#00adef"/><path d="M70.15,26.45c.89,0,1,.08,1,1s-.08,1-1,1-1-.06-1-1.09S69.17,26.44,70.15,26.45Z" style="fill:#00adef"/></svg>